<?xml version="1.0" encoding="UTF-8" standalone="no"?>
<!-- Created with Inkscape (http://www.inkscape.org/) -->

<svg
   width="210mm"
   height="297mm"
   viewBox="0 0 210 297"
   version="1.1"
   id="svg5"
   inkscape:version="1.1 (c68e22c387, 2021-05-23)"
   sodipodi:docname="illus_1.svg"
   xmlns:inkscape="http://www.inkscape.org/namespaces/inkscape"
   xmlns:sodipodi="http://sodipodi.sourceforge.net/DTD/sodipodi-0.dtd"
   xmlns="http://www.w3.org/2000/svg"
   xmlns:svg="http://www.w3.org/2000/svg">
  <sodipodi:namedview
     id="namedview7"
     pagecolor="#505050"
     bordercolor="#ffffff"
     borderopacity="1"
     inkscape:pageshadow="0"
     inkscape:pageopacity="0"
     inkscape:pagecheckerboard="1"
     inkscape:document-units="mm"
     showgrid="false"
     inkscape:zoom="0.5"
     inkscape:cx="270"
     inkscape:cy="259"
     inkscape:window-width="1920"
     inkscape:window-height="1001"
     inkscape:window-x="-9"
     inkscape:window-y="-9"
     inkscape:window-maximized="1"
     inkscape:current-layer="layer1"
     inkscape:snap-bbox="true"
     inkscape:snap-global="false" />
  <defs
     id="defs2">
    <inkscape:path-effect
       effect="fillet_chamfer"
       id="path-effect26594"
       is_visible="true"
       lpeversion="1"
       satellites_param="C,0,0,1,0,1.5875,0,1 @ C,0,0,1,0,1.5875,0,1 @ C,0,0,1,0,1.5875,0,1 @ C,0,0,1,0,1.5875,0,1"
       unit="px"
       method="auto"
       mode="F"
       radius="6"
       chamfer_steps="1"
       flexible="false"
       use_knot_distance="false"
       apply_no_radius="true"
       apply_with_radius="true"
       only_selected="false"
       hide_knots="false" />
    <inkscape:path-effect
       effect="fillet_chamfer"
       id="path-effect26483"
       is_visible="true"
       lpeversion="1"
       satellites_param="C,0,0,1,0,1.5875,0,1 @ C,0,0,1,0,1.5875,0,1 @ C,0,0,1,0,1.5875,0,1 @ C,0,0,1,0,1.5875,0,1"
       unit="px"
       method="auto"
       mode="F"
       radius="6"
       chamfer_steps="1"
       flexible="false"
       use_knot_distance="false"
       apply_no_radius="true"
       apply_with_radius="true"
       only_selected="false"
       hide_knots="false" />
    <rect
       x="-52.531709"
       y="276.48268"
       width="602.73225"
       height="89.856866"
       id="rect1910" />
  </defs>
  <g
     inkscape:label="Layer 1"
     inkscape:groupmode="layer"
     id="layer1">
    <rect
       style="fill:#ffffff;fill-opacity:1;stroke-width:7.66924"
       id="rect846"
       width="338.66666"
       height="190.5"
       x="-66.972366"
       y="24.375484"
       inkscape:export-filename="C:\Users\User\Desktop\week1-portfolio\asset\illus_1.png"
       inkscape:export-xdpi="96"
       inkscape:export-ydpi="96" />
    <path
       style="fill:#ffcaff;stroke:none;stroke-width:0.264583px;stroke-linecap:butt;stroke-linejoin:miter;stroke-opacity:1;fill-opacity:0.53142858"
       d="m 25.818236,86.060787 c -0.324515,-2.271607 -0.739721,-3.619733 0,-5.986838 2.004209,-6.413471 12.988995,-12.85176 19.083045,-14.592917 1.340821,-0.383092 2.759395,-0.425365 4.115951,-0.748352 1.518353,-0.361514 5.012735,-1.641227 6.735191,-1.870888 2.101738,-0.280233 4.240675,0 6.361014,0 3.991224,0 7.98245,0 11.973674,0 8.025569,0 19.961465,-1.466027 27.314949,2.61924 0.54515,0.302861 0.93891,0.843638 1.49671,1.122532 0.45996,0.229984 1.07824,0.07527 1.49671,0.374179 1.62359,1.159709 4.81075,6.841847 5.61266,8.980255 0.58087,1.548992 1.10509,3.854873 2.61924,4.864306 1.86059,1.240393 4.11841,1.550514 6.36101,1.870887 5.7765,0.825212 12.08773,-0.601977 17.58634,-1.870887 3.22029,-0.743146 6.55662,-0.93795 9.72861,-1.870887 3.87217,-1.138875 7.73514,-2.552742 11.59949,-3.741775 3.68862,-1.134956 7.26331,-2.77051 10.85115,-4.115948 1.88269,-0.706011 3.54592,-1.664213 5.61266,-1.870887 6.42343,-0.642345 20.66617,-0.2398 25.44406,3.741772 1.12543,0.93786 2.17851,2.144077 3.36759,2.993419 0.45389,0.32421 1.04282,0.424145 1.49671,0.748355 1.41035,1.007393 1.82753,2.575888 2.99342,3.741772 2.80377,2.803776 5.92364,5.273881 9.72861,6.361015 4.93506,1.41002 13.50351,1.64307 18.70887,1.122534 7.04438,-0.70444 9.80254,-1.781715 16.08962,2.61924 1.3854,0.969777 1.73886,0.770414 2.61924,1.870887 1.14863,1.43578 1.35237,2.387563 1.87089,4.115951 1.82391,6.079678 1.87089,8.079098 1.87089,14.592918 0,2.00231 0.30156,4.40082 0,6.36101 -0.22255,1.44658 -1.21935,2.72914 -1.49671,4.11595 -0.28233,1.41165 -0.54187,3.04469 -0.74836,4.49013 -0.51698,3.61886 0.26323,7.93605 1.49671,11.22532 0.81235,2.16625 2.20292,4.18714 2.99342,6.36102 1.96656,5.40805 1.49671,11.58707 1.49671,17.21215 0,1.36539 0.22163,3.16037 0,4.49013 -0.029,0.17399 -0.28666,0.22103 -0.37418,0.37418 -1.50388,2.63179 -1.41372,2.16208 -3.36759,4.11595 -0.31799,0.31799 -0.43037,0.80454 -0.74836,1.12253 -1.63991,1.63991 -6.26264,4.48737 -8.2319,5.61266 -1.61378,0.92216 -4.30342,1.87165 -5.23848,3.74177 -0.57577,1.15154 -0.39465,2.50381 -0.74836,3.74178 -0.95253,3.33385 -1.25495,6.97026 -4.11595,9.35443 -0.90393,0.75328 -2.06462,1.14849 -2.99342,1.87089 -0.22014,0.17122 -0.13203,0.60998 -0.37417,0.74835 -2.8279,1.61594 -11.99803,4.1776 -14.9671,4.49013 -3.59717,0.37865 -7.23409,0 -10.85114,0 -3.36759,0 -6.73919,0.16408 -10.10279,0 -6.03138,-0.29421 -11.91835,-2.28356 -17.96051,-2.61924 -5.5649,-0.30916 -11.26924,0 -16.83798,0 -2.67439,0 -5.88562,-0.30227 -8.60608,0 -2.46189,0.27354 -4.6989,0.89409 -7.10937,1.49671 -5.67056,1.41764 -11.47909,2.59516 -17.21215,3.74177 -3.53167,0.70634 -7.26966,0.37418 -10.85115,0.37418 -2.95702,0 -6.03573,0.2265 -8.98025,0 -4.32637,-0.3328 -8.2272,-2.61796 -12.34786,-3.74177 -4.137312,-1.12836 -13.443824,-1.76778 -17.960508,-1.12254 -2.416646,0.34524 -4.738295,1.34398 -7.10937,1.87089 -6.725393,1.49453 -13.732668,1.49671 -20.579751,1.49671 -1.621436,0 -3.274357,0.31799 -4.864307,0 -1.951283,-0.39026 -7.227993,-3.22425 -8.606078,-4.11595 -0.221432,-0.14328 -3.394731,-2.49999 -3.741772,-3.3676 -0.502687,-1.25672 0,-9.11332 0,-10.47696 0,-1.24726 0.394417,-2.55852 0,-3.74178 -1.742702,-5.2281 -8.755369,-8.94785 -12.72203,-12.34785 -0.937471,-0.80354 -1.70148,-1.79325 -2.619241,-2.61924 -1.076953,-0.96926 -1.932217,-1.61937 -2.619242,-2.99342 -2.29043,-4.58086 -3.456009,-10.81719 -1.496709,-15.71545 1.28979,-3.22447 3.353061,-6.15212 5.238482,-8.98025 1.372339,-2.05851 0.213167,1.07037 1.870887,-2.24507 0.284419,-0.56883 0.137981,-1.28039 0.374178,-1.87088 0.270101,-0.67526 0.892548,-1.18094 1.122531,-1.87089 0.475231,-1.42569 0.431623,-3.65482 0.748355,-5.23848 0.406615,-2.03307 0.36339,-9.25848 -0.374176,-11.22532 -0.526901,-1.40507 -1.702958,-2.67033 -2.245065,-4.11595 -0.180568,-0.48152 -0.124432,-1.04717 -0.374177,-1.49671 -0.387852,-0.69813 -1.078147,-1.19073 -1.49671,-1.87089 -1.038489,-1.68754 -2.69213,-4.33462 -3.367596,-6.36101 -0.118325,-0.35498 0.118326,-0.76756 0,-1.12254 -0.05578,-0.16733 -0.331396,-0.20305 -0.374177,-0.374172 -0.668014,-2.672056 0.04443,-6.053487 1.496709,-8.231902 0.195686,-0.293529 0.636797,-0.413679 0.748355,-0.748355 0.07888,-0.236649 -0.138371,-0.540798 0,-0.748353 0.294047,-0.441071 1.200147,-0.529408 1.496709,-1.122532 0.176389,-0.35278 0.09528,-0.843637 0.374177,-1.122532 0.176389,-0.17639 0.511705,0.07888 0.748355,0 0.653558,-0.217852 1.570997,-1.421053 1.870887,-1.870887 z"
       id="path62104"
       inkscape:export-filename="C:\Users\User\Desktop\week1-portfolio\asset\illus_1.png"
       inkscape:export-xdpi="96"
       inkscape:export-ydpi="96" />
    <text
       xml:space="preserve"
       transform="matrix(0.26458333,0,0,0.26458333,-37.307882,-36.311557)"
       id="text1908"
       style="font-style:normal;font-variant:normal;font-weight:500;font-stretch:normal;font-size:74.6667px;line-height:1.25;font-family:'IBM 3270';-inkscape-font-specification:'IBM 3270, Medium';font-variant-ligatures:normal;font-variant-caps:normal;font-variant-numeric:normal;font-variant-east-asian:normal;letter-spacing:0px;white-space:pre;shape-inside:url(#rect1910);fill:#000000;fill-opacity:1;stroke:none"
       inkscape:export-filename="C:\Users\User\Desktop\week1-portfolio\asset\illus_1.png"
       inkscape:export-xdpi="96"
       inkscape:export-ydpi="96"><tspan
         x="-52.53125"
         y="345.54912"
         id="tspan71530"><tspan
           style="font-weight:normal;font-family:'OCR A Extended';-inkscape-font-specification:'OCR A Extended, Normal';fill:#750075"
           id="tspan71528">I build Stuff</tspan></tspan></text>
    <g
       id="g44955"
       transform="translate(1.0583333)"
       inkscape:export-filename="C:\Users\User\Desktop\week1-portfolio\asset\illus_1.png"
       inkscape:export-xdpi="96"
       inkscape:export-ydpi="96">
      <rect
         style="fill:#ff89ff;fill-opacity:1;stroke:#ff40ff;stroke-width:0.233;stroke-linejoin:round;stroke-miterlimit:4;stroke-dasharray:none;stroke-opacity:1"
         id="rect42356"
         width="10.929778"
         height="5.6885414"
         x="142.34103"
         y="120.6449" />
      <rect
         style="fill:#ff89ff;fill-opacity:1;stroke:#ff40ff;stroke-width:0.343;stroke-linejoin:round;stroke-miterlimit:4;stroke-dasharray:none;stroke-opacity:1"
         id="rect29723"
         width="17.932976"
         height="27.516666"
         x="139.98024"
         y="126.42226" />
      <rect
         style="fill:#ffb0ff;fill-opacity:1;stroke:none;stroke-width:1.05032;stroke-linejoin:round;stroke-miterlimit:4;stroke-dasharray:none;stroke-opacity:1"
         id="rect31502"
         width="18.1476"
         height="14.499372"
         x="139.38104"
         y="107.62276" />
      <rect
         style="fill:#cb81cf;fill-opacity:1;stroke:none;stroke-width:1;stroke-linejoin:round;stroke-miterlimit:4;stroke-dasharray:none;stroke-opacity:1"
         id="rect31958"
         width="4.8947916"
         height="0.39687499"
         x="139.99765"
         y="112.74557" />
      <rect
         style="fill:#cb81cf;fill-opacity:1;stroke:none;stroke-width:1;stroke-linejoin:round;stroke-miterlimit:4;stroke-dasharray:none;stroke-opacity:1"
         id="rect32062"
         width="4.8947916"
         height="0.39687499"
         x="147.93504"
         y="112.74557" />
      <rect
         style="fill:#ffe3ff;fill-opacity:1;stroke:none;stroke-width:0.851943;stroke-linejoin:round;stroke-miterlimit:4;stroke-dasharray:none;stroke-opacity:1"
         id="rect31686"
         width="4.2094951"
         height="4.0224066"
         x="144.83597"
         y="111.22421" />
      <rect
         style="fill:#cb81cf;fill-opacity:1;stroke:none;stroke-width:1;stroke-linejoin:round;stroke-miterlimit:4;stroke-dasharray:none;stroke-opacity:1"
         id="rect32064"
         width="4.8947916"
         height="0.39687499"
         x="153.22664"
         y="112.74556" />
      <rect
         style="fill:#ffe4ff;fill-opacity:1;stroke:none;stroke-width:0.772512;stroke-linejoin:round;stroke-miterlimit:4;stroke-dasharray:none;stroke-opacity:1"
         id="rect31812"
         width="3.4611404"
         height="4.0224066"
         x="151.93423"
         y="111.22421" />
      <rect
         style="fill:#cb00bb;fill-opacity:1;stroke:#ff40ff;stroke-width:0.211;stroke-linejoin:round;stroke-miterlimit:4;stroke-dasharray:none;stroke-opacity:1"
         id="rect31836"
         width="3.3734374"
         height="9.7234373"
         x="138.2448"
         y="106.3625" />
      <rect
         style="fill:#cb00bb;fill-opacity:1;stroke:#ff40ff;stroke-width:0.211;stroke-linejoin:round;stroke-miterlimit:4;stroke-dasharray:none;stroke-opacity:1"
         id="rect32066"
         width="3.3734374"
         height="19.358503"
         x="104.86029"
         y="-157.6088"
         transform="rotate(90)" />
      <rect
         style="fill:#ff77ff;fill-opacity:1;stroke:none;stroke-width:0.19847;stroke-linejoin:round;stroke-miterlimit:4;stroke-dasharray:none;stroke-opacity:1"
         id="rect50415"
         width="5.9728184"
         height="27.661196"
         x="151.77548"
         y="126.59521" />
      <rect
         style="fill:#ff77ff;fill-opacity:1;stroke:none;stroke-width:0.0864824;stroke-linejoin:round;stroke-miterlimit:4;stroke-dasharray:none;stroke-opacity:1"
         id="rect51929"
         width="2.1034591"
         height="4.0721183"
         x="151.02885"
         y="122.13937" />
    </g>
    <g
       id="g29587"
       transform="matrix(0.88204163,0,0,0.97212995,20.270759,9.1285639)"
       inkscape:export-filename="C:\Users\User\Desktop\week1-portfolio\asset\illus_1.png"
       inkscape:export-xdpi="96"
       inkscape:export-ydpi="96">
      <rect
         style="fill:#ff5dff;fill-opacity:1;stroke:none;stroke-width:9.08413;stroke-miterlimit:4;stroke-dasharray:none;stroke-opacity:0.594286"
         id="rect24436"
         width="39.6875"
         height="132.29167"
         x="144.77612"
         y="-234.3735"
         transform="rotate(90)" />
      <rect
         style="fill:#ff4fff;fill-opacity:1;stroke:none;stroke-width:4.31459;stroke-miterlimit:4;stroke-dasharray:none;stroke-opacity:0.594286"
         id="rect52455"
         width="39.6875"
         height="29.843191"
         x="144.77612"
         y="-234.3735"
         transform="rotate(90)" />
      <g
         id="g26599"
         transform="translate(1.3229167,0.26458333)">
        <rect
           style="fill:#ff9cff;fill-opacity:1;stroke:none;stroke-width:3.34987;stroke-miterlimit:4;stroke-dasharray:none;stroke-opacity:0.594286"
           id="rect24226"
           width="158.75"
           height="4.4965396"
           x="88.048859"
           y="139.31468" />
        <path
           style="fill:#ff40ff;fill-opacity:1;stroke:#750075;stroke-width:0;stroke-linejoin:round;stroke-miterlimit:4;stroke-dasharray:none;stroke-opacity:0.594286"
           id="rect24706"
           width="81.967918"
           height="1.5875001"
           x="88.057076"
           y="143.80424"
           inkscape:path-effect="#path-effect26483"
           d="m 89.644576,143.80424 h 78.792914 l 1.5875,1.5875 -1.5875,1e-5 H 89.644576 l -1.5875,-1.5875 z"
           sodipodi:type="rect" />
        <path
           style="fill:#ff40ff;fill-opacity:1;stroke:#750075;stroke-width:0;stroke-linejoin:round;stroke-miterlimit:4;stroke-dasharray:none;stroke-opacity:0.594286"
           id="path26590"
           width="82.020836"
           height="1.5874999"
           x="164.79311"
           y="-145.3979"
           inkscape:path-effect="#path-effect26594"
           d="m 166.38061,-145.3979 h 78.84583 l 1.5875,1.5875 h -80.43333 l -1.5875,-1.5875 z"
           sodipodi:type="rect"
           transform="scale(1,-1)" />
      </g>
    </g>
    <g
       id="g29593"
       transform="matrix(0.87608992,0,0,0.90977672,33.01182,17.940143)"
       inkscape:export-filename="C:\Users\User\Desktop\week1-portfolio\asset\illus_1.png"
       inkscape:export-xdpi="96"
       inkscape:export-ydpi="96">
      <rect
         style="fill:#ff68ff;fill-opacity:1;stroke:#ff40ff;stroke-width:2.365;stroke-miterlimit:4;stroke-dasharray:none;stroke-opacity:1"
         id="rect24122"
         width="53.401474"
         height="29.261084"
         x="155.81528"
         y="98.981377" />
      <rect
         style="fill:#ff68ff;fill-opacity:1;stroke:#ff40ff;stroke-width:1.00396;stroke-linejoin:round;stroke-miterlimit:4;stroke-dasharray:none;stroke-opacity:1"
         id="rect29578"
         width="5.7957883"
         height="21.512043"
         x="-185.21581"
         y="-137.97591"
         transform="scale(-1)" />
      <rect
         style="fill:#ff68ff;fill-opacity:1;stroke:#ff40ff;stroke-width:1;stroke-linejoin:round;stroke-miterlimit:4;stroke-dasharray:none;stroke-opacity:1"
         id="rect28519"
         width="5.7997484"
         height="21.328108"
         x="114.74126"
         y="-193.35614"
         transform="rotate(90)" />
      <rect
         style="fill:#ff68ff;fill-opacity:1;stroke:#ff40ff;stroke-width:0.627367;stroke-linejoin:round;stroke-miterlimit:4;stroke-dasharray:none;stroke-opacity:1"
         id="rect29580"
         width="2.2435195"
         height="21.700741"
         x="-139.66092"
         y="171.49965"
         transform="rotate(-90)" />
    </g>
    <g
       id="g44932"
       transform="translate(-3.7041668)"
       inkscape:export-filename="C:\Users\User\Desktop\week1-portfolio\asset\illus_1.png"
       inkscape:export-xdpi="96"
       inkscape:export-ydpi="96">
      <g
         id="g44943"
         transform="matrix(0.74237504,0,0,0.87863623,59.972166,17.668126)">
        <path
           style="fill:#ff89ff;fill-opacity:1;stroke:#ff56ff;stroke-width:0.264583px;stroke-linecap:butt;stroke-linejoin:miter;stroke-opacity:1"
           d="m 230.7537,141.57934 c 0,0 2.33861,-10.10279 5.56589,-6.59487 3.22728,3.50791 -1.16931,-5.56589 -4.25627,6.64165"
           id="path44915" />
        <path
           style="fill:#ff89ff;fill-opacity:1;stroke:#ff56ff;stroke-width:0.264583px;stroke-linecap:butt;stroke-linejoin:miter;stroke-opacity:1"
           d="m 229.35053,140.31649 c 0,0 2.33861,-10.10279 5.56589,-6.59487 3.22728,3.50791 -1.16931,-5.56589 -4.25627,6.64165"
           id="path44917" />
        <path
           style="fill:#ff89ff;fill-opacity:1;stroke:#ff56ff;stroke-width:0.264583px;stroke-linecap:butt;stroke-linejoin:miter;stroke-opacity:1"
           d="m 229.36207,141.34548 c 0,0 -2.33861,-10.10279 -5.56589,-6.59487 -3.22728,3.50791 1.16931,-5.56589 4.25627,6.64165"
           id="path44911" />
        <path
           style="fill:#ff89ff;fill-opacity:1;stroke:#ff56ff;stroke-width:0.264583px;stroke-linecap:butt;stroke-linejoin:miter;stroke-opacity:1"
           d="m 228.84758,138.25852 c 0,0 -2.33861,-10.10279 -5.56589,-6.59487 -3.22728,3.50791 1.16931,-5.56589 4.25627,6.64165"
           id="path44909" />
        <path
           style="fill:#ff89ff;fill-opacity:1;stroke:#ff56ff;stroke-width:0.359704px;stroke-linecap:butt;stroke-linejoin:miter;stroke-opacity:1"
           d="m 230.58112,139.16813 c 0,0 -2.94473,-14.82924 -7.00847,-9.68019 -4.06373,5.14904 1.47238,-8.16981 5.35942,9.74886"
           id="path44913" />
        <path
           style="fill:#ff89ff;fill-opacity:1;stroke:#ff56ff;stroke-width:0.264583px;stroke-linecap:butt;stroke-linejoin:miter;stroke-opacity:1"
           d="m 228.13445,138.58592 c 0,0 2.33861,-10.10279 5.56589,-6.59487 3.22728,3.50791 -1.16931,-5.56589 -4.25627,6.64165"
           id="path44919" />
        <path
           style="fill:#ff89ff;fill-opacity:1;stroke:#ff56ff;stroke-width:0.264583px;stroke-linecap:butt;stroke-linejoin:miter;stroke-opacity:1"
           d="m 233.38448,139.00687 c 0,0 -2.33861,-10.10279 -5.56589,-6.59487 -3.22728,3.50791 1.16931,-5.56589 4.25627,6.64165"
           id="path44921" />
        <path
           style="fill:#ff89ff;fill-opacity:1;stroke:#ff56ff;stroke-width:0.264583px;stroke-linecap:butt;stroke-linejoin:miter;stroke-opacity:1"
           d="m 232.67136,137.83757 c 0,0 2.33861,-10.10279 5.56589,-6.59487 3.22728,3.50791 -1.16931,-5.56589 -4.25627,6.64165"
           id="path42934" />
        <rect
           style="fill:#ff89ff;fill-opacity:1;stroke:#ff40ff;stroke-width:0.158474;stroke-linejoin:round;stroke-miterlimit:4;stroke-dasharray:none;stroke-opacity:1"
           id="rect42532"
           width="10.693193"
           height="7.9102488"
           x="225.05052"
           y="137.50729" />
        <rect
           style="fill:#ff77ff;fill-opacity:1;stroke:none;stroke-width:0.079881;stroke-linejoin:round;stroke-miterlimit:4;stroke-dasharray:none;stroke-opacity:1"
           id="rect51047"
           width="2.7817173"
           height="7.7258558"
           x="232.88885"
           y="137.60614" />
      </g>
    </g>
    <g
       id="g50413"
       transform="matrix(0.87896659,0,0,0.9163385,16.532499,12.074249)"
       inkscape:export-filename="C:\Users\User\Desktop\week1-portfolio\asset\illus_1.png"
       inkscape:export-xdpi="96"
       inkscape:export-ydpi="96">
      <g
         id="g47406">
        <g
           id="g46781"
           transform="translate(0.18708867,0.39756342)">
          <g
             id="g45219"
             transform="translate(3.3208239,1.4967094)">
            <rect
               style="fill:#ff89ff;fill-opacity:1;stroke:none;stroke-width:0.211;stroke-linejoin:round;stroke-miterlimit:4;stroke-dasharray:none;stroke-opacity:1"
               id="rect44979"
               width="7.4835467"
               height="9.1673441"
               x="116.18206"
               y="134.89093" />
            <ellipse
               style="fill:#ff89ff;fill-opacity:1;stroke:#ff56ff;stroke-width:0.208738;stroke-linejoin:round;stroke-miterlimit:4;stroke-dasharray:none;stroke-opacity:1"
               id="ellipse45085"
               cx="119.94578"
               cy="144.01247"
               rx="3.7466388"
               ry="0.53029758" />
            <ellipse
               style="fill:#ff89ff;fill-opacity:1;stroke:#ff56ff;stroke-width:0.208738;stroke-linejoin:round;stroke-miterlimit:4;stroke-dasharray:none;stroke-opacity:1"
               id="path45003"
               cx="119.92239"
               cy="134.82173"
               rx="3.7466388"
               ry="0.53029758" />
            <rect
               style="fill:#ff89ff;fill-opacity:1;stroke:none;stroke-width:0.0577232;stroke-linejoin:round;stroke-miterlimit:4;stroke-dasharray:none;stroke-opacity:1"
               id="rect45105"
               width="6.8608923"
               height="0.74835396"
               x="116.44515"
               y="143.26315" />
            <ellipse
               style="fill:#ff89ff;fill-opacity:1;stroke:none;stroke-width:0.211;stroke-linejoin:round;stroke-miterlimit:4;stroke-dasharray:none;stroke-opacity:1"
               id="path45129"
               cx="116.40423"
               cy="143.82588"
               rx="0.21632127"
               ry="0.2265527" />
            <ellipse
               style="fill:#ff89ff;fill-opacity:1;stroke:none;stroke-width:0.211;stroke-linejoin:round;stroke-miterlimit:4;stroke-dasharray:none;stroke-opacity:1"
               id="ellipse45131"
               cx="123.44997"
               cy="143.84065"
               rx="0.21632127"
               ry="0.2265527" />
          </g>
          <rect
             style="fill:#ff56ff;fill-opacity:1;stroke:none;stroke-width:0.18254;stroke-linejoin:round;stroke-miterlimit:4;stroke-dasharray:none;stroke-opacity:1"
             id="rect45243"
             width="0.26458332"
             height="9.1338263"
             x="126.72626"
             y="136.48412" />
          <rect
             style="fill:#ff56ff;fill-opacity:1;stroke:none;stroke-width:0.18213;stroke-linejoin:round;stroke-miterlimit:4;stroke-dasharray:none;stroke-opacity:1"
             id="rect46770"
             width="0.26458332"
             height="9.0929012"
             x="119.49997"
             y="136.49872" />
        </g>
        <path
           style="fill:#ff56ff;fill-opacity:1;stroke:none;stroke-width:0.149808;stroke-linejoin:round;stroke-miterlimit:4;stroke-dasharray:none;stroke-opacity:1"
           id="path47145"
           d="m 126.64434,135.23034 c -0.0167,-0.006 -0.0336,-0.0109 -0.05,-0.019 -0.0516,-0.0255 -0.1343,-0.081 -0.18005,-0.11265 -0.0775,-0.0537 -0.19187,-0.13813 -0.26693,-0.1988 -0.0461,-0.0372 -0.0915,-0.0776 -0.13722,-0.11642 -0.11842,-0.10776 -0.23582,-0.2229 -0.34396,-0.36806 -0.0444,-0.0596 -0.10509,-0.14993 -0.14125,-0.23307 -0.0155,-0.0357 -0.0266,-0.0781 -0.0399,-0.11718 -0.005,-0.0435 -0.0139,-0.0859 -0.0154,-0.13051 -0.003,-0.0816 0.0109,-0.21002 0.0299,-0.2818 0.0478,-0.18086 0.13622,-0.29672 0.2168,-0.41219 0.29386,-0.33807 -0.14932,0.17068 -0.22036,0.26421 -0.0296,0.0389 0.0645,-0.0589 0.0974,-0.0857 0.0838,-0.0686 0.17066,-0.12341 0.25599,-0.18413 0.0234,-0.0184 0.0472,-0.0348 0.0702,-0.0551 0.0225,-0.0199 0.0449,-0.0409 0.0661,-0.0657 0.0542,-0.0633 0.40751,-0.36574 0.52719,-0.67102 0.0339,-0.0865 0.0401,-0.13014 0.0621,-0.22864 0.0193,-0.12149 0.0303,-0.24701 0.0182,-0.37401 -0.004,-0.0413 -0.008,-0.0837 -0.0181,-0.12101 -0.0311,-0.11794 -0.0704,-0.17189 -0.11939,-0.26031 -0.14113,-0.21428 -0.30413,-0.35888 -0.4567,-0.53664 0,0 -0.41723,0.5376 -0.41723,0.5376 v 0 c 0.15175,0.17044 0.31336,0.30868 0.45405,0.51564 0.0378,0.0663 0.079,0.1229 0.10216,0.21539 0.008,0.0314 0.0107,0.0673 0.013,0.10213 0.008,0.1137 -0.007,0.2238 -0.029,0.32777 -0.0263,0.0925 -0.0303,0.12001 -0.0682,0.19799 -0.0151,0.031 -0.0682,0.10516 -0.0489,0.0856 0.12483,-0.12651 0.24419,-0.27328 0.36686,-0.40783 0.0214,-0.0234 -0.0411,0.0525 -0.0629,0.0744 -0.0225,0.0227 -0.0464,0.0395 -0.0696,0.0592 -0.086,0.0641 -0.1739,0.11815 -0.25968,0.18342 -0.0336,0.0256 -0.0682,0.0477 -0.0999,0.0815 -0.17577,0.18764 -0.34888,0.38496 -0.52193,0.58231 -0.0336,0.0383 -0.0652,0.0829 -0.0978,0.12438 -0.0683,0.1108 -0.10958,0.16217 -0.16122,0.30541 -0.0515,0.14293 -0.0775,0.32061 -0.0646,0.49637 0.004,0.0548 0.0158,0.10614 0.0237,0.15921 0.0155,0.0447 0.0285,0.093 0.0464,0.13404 0.0385,0.0885 0.10195,0.18225 0.14955,0.24596 0.11048,0.14784 0.23015,0.26567 0.35084,0.37643 0.16688,0.14429 0.33556,0.28212 0.50705,0.40373 0.0237,0.0168 0.048,0.0301 0.0718,0.0465 0.0175,0.0121 0.0347,0.0261 0.052,0.0391 0,0 0.40907,-0.57844 0.40907,-0.57844 z" />
        <path
           style="fill:#ff56ff;fill-opacity:1;stroke:none;stroke-width:0.149808;stroke-linejoin:round;stroke-miterlimit:4;stroke-dasharray:none;stroke-opacity:1"
           id="path47389"
           d="m 124.32924,135.23034 c -0.0167,-0.006 -0.0336,-0.0109 -0.05,-0.019 -0.0516,-0.0255 -0.1343,-0.081 -0.18005,-0.11265 -0.0775,-0.0537 -0.19187,-0.13813 -0.26693,-0.1988 -0.0461,-0.0372 -0.0915,-0.0776 -0.13722,-0.11642 -0.11842,-0.10776 -0.23582,-0.2229 -0.34396,-0.36806 -0.0444,-0.0596 -0.10509,-0.14993 -0.14125,-0.23307 -0.0155,-0.0357 -0.0266,-0.0781 -0.0399,-0.11718 -0.005,-0.0435 -0.0139,-0.0859 -0.0154,-0.13051 -0.003,-0.0816 0.0109,-0.21002 0.0299,-0.2818 0.0478,-0.18086 0.13622,-0.29672 0.2168,-0.41219 0.29386,-0.33807 -0.14932,0.17068 -0.22036,0.26421 -0.0296,0.0389 0.0645,-0.0589 0.0974,-0.0857 0.0838,-0.0686 0.17066,-0.12341 0.25599,-0.18413 0.0234,-0.0184 0.0472,-0.0348 0.0702,-0.0551 0.0225,-0.0199 0.0449,-0.0409 0.0661,-0.0657 0.0542,-0.0633 0.40751,-0.36574 0.52719,-0.67102 0.0339,-0.0865 0.0401,-0.13014 0.0621,-0.22864 0.0193,-0.12149 0.0303,-0.24701 0.0182,-0.37401 -0.004,-0.0413 -0.008,-0.0837 -0.0181,-0.12101 -0.0311,-0.11794 -0.0704,-0.17189 -0.11939,-0.26031 -0.14113,-0.21428 -0.30413,-0.35888 -0.4567,-0.53664 0,0 -0.41723,0.5376 -0.41723,0.5376 v 0 c 0.15175,0.17044 0.31336,0.30868 0.45405,0.51564 0.0378,0.0663 0.079,0.1229 0.10216,0.21539 0.008,0.0314 0.0107,0.0673 0.013,0.10213 0.008,0.1137 -0.007,0.2238 -0.029,0.32777 -0.0263,0.0925 -0.0303,0.12001 -0.0682,0.19799 -0.0151,0.031 -0.0682,0.10516 -0.0489,0.0856 0.12483,-0.12651 0.24419,-0.27328 0.36686,-0.40783 0.0214,-0.0234 -0.0411,0.0525 -0.0629,0.0744 -0.0225,0.0227 -0.0464,0.0395 -0.0696,0.0592 -0.086,0.0641 -0.1739,0.11815 -0.25968,0.18342 -0.0336,0.0256 -0.0682,0.0477 -0.0999,0.0815 -0.17577,0.18764 -0.34888,0.38496 -0.52193,0.58231 -0.0336,0.0383 -0.0652,0.0829 -0.0978,0.12438 -0.0683,0.1108 -0.10958,0.16217 -0.16122,0.30541 -0.0515,0.14293 -0.0775,0.32061 -0.0646,0.49637 0.004,0.0548 0.0158,0.10614 0.0237,0.15921 0.0155,0.0447 0.0285,0.093 0.0464,0.13404 0.0385,0.0885 0.10195,0.18225 0.14955,0.24596 0.11048,0.14784 0.23015,0.26567 0.35084,0.37643 0.16688,0.14429 0.33556,0.28212 0.50705,0.40373 0.0237,0.0168 0.048,0.0301 0.0718,0.0465 0.0175,0.0121 0.0347,0.0261 0.052,0.0391 0,0 0.40907,-0.57844 0.40907,-0.57844 z" />
        <path
           style="fill:#ff56ff;fill-opacity:1;stroke:none;stroke-width:0.149808;stroke-linejoin:round;stroke-miterlimit:4;stroke-dasharray:none;stroke-opacity:1"
           id="path47391"
           d="m 121.48497,135.23034 c -0.0167,-0.006 -0.0336,-0.0109 -0.05,-0.019 -0.0516,-0.0255 -0.1343,-0.081 -0.18005,-0.11265 -0.0775,-0.0537 -0.19187,-0.13813 -0.26693,-0.1988 -0.0461,-0.0372 -0.0915,-0.0776 -0.13722,-0.11642 -0.11842,-0.10776 -0.23582,-0.2229 -0.34396,-0.36806 -0.0444,-0.0596 -0.10509,-0.14993 -0.14125,-0.23307 -0.0155,-0.0357 -0.0266,-0.0781 -0.0399,-0.11718 -0.005,-0.0435 -0.0139,-0.0859 -0.0154,-0.13051 -0.003,-0.0816 0.0109,-0.21002 0.0299,-0.2818 0.0478,-0.18086 0.13622,-0.29672 0.2168,-0.41219 0.29386,-0.33807 -0.14932,0.17068 -0.22036,0.26421 -0.0296,0.0389 0.0645,-0.0589 0.0974,-0.0857 0.0838,-0.0686 0.17066,-0.12341 0.25599,-0.18413 0.0234,-0.0184 0.0472,-0.0348 0.0702,-0.0551 0.0225,-0.0199 0.0449,-0.0409 0.0661,-0.0657 0.0542,-0.0633 0.40751,-0.36574 0.52719,-0.67102 0.0339,-0.0865 0.0401,-0.13014 0.0621,-0.22864 0.0193,-0.12149 0.0303,-0.24701 0.0182,-0.37401 -0.004,-0.0413 -0.008,-0.0837 -0.0181,-0.12101 -0.0311,-0.11794 -0.0704,-0.17189 -0.11939,-0.26031 -0.14113,-0.21428 -0.30413,-0.35888 -0.4567,-0.53664 0,0 -0.41723,0.5376 -0.41723,0.5376 v 0 c 0.15175,0.17044 0.31336,0.30868 0.45405,0.51564 0.0378,0.0663 0.079,0.1229 0.10216,0.21539 0.008,0.0314 0.0107,0.0673 0.013,0.10213 0.008,0.1137 -0.007,0.2238 -0.029,0.32777 -0.0263,0.0925 -0.0303,0.12001 -0.0682,0.19799 -0.0151,0.031 -0.0682,0.10516 -0.0489,0.0856 0.12483,-0.12651 0.24419,-0.27328 0.36686,-0.40783 0.0214,-0.0234 -0.0411,0.0525 -0.0629,0.0744 -0.0225,0.0227 -0.0464,0.0395 -0.0696,0.0592 -0.086,0.0641 -0.1739,0.11815 -0.25968,0.18342 -0.0336,0.0256 -0.0682,0.0477 -0.0999,0.0815 -0.17577,0.18764 -0.34888,0.38496 -0.52193,0.58231 -0.0336,0.0383 -0.0652,0.0829 -0.0978,0.12438 -0.0683,0.1108 -0.10958,0.16217 -0.16122,0.30541 -0.0515,0.14293 -0.0775,0.32061 -0.0646,0.49637 0.004,0.0548 0.0158,0.10614 0.0237,0.15921 0.0155,0.0447 0.0285,0.093 0.0464,0.13404 0.0385,0.0885 0.10195,0.18225 0.14955,0.24596 0.11048,0.14784 0.23015,0.26567 0.35084,0.37643 0.16688,0.14429 0.33556,0.28212 0.50705,0.40373 0.0237,0.0168 0.048,0.0301 0.0718,0.0465 0.0175,0.0121 0.0347,0.0261 0.052,0.0391 0,0 0.40907,-0.57844 0.40907,-0.57844 z" />
      </g>
      <g
         id="g50393">
        <path
           style="fill:none;stroke:#ff89ff;stroke-width:0.417521;stroke-linecap:butt;stroke-linejoin:miter;stroke-miterlimit:4;stroke-dasharray:none;stroke-opacity:1"
           d="m 127.15515,138.35088 c 2.9336,5.54183 0.0374,6.44938 0.0374,6.44938"
           id="path49604" />
        <path
           style="fill:none;stroke:#ff56ff;stroke-width:0.253331px;stroke-linecap:butt;stroke-linejoin:miter;stroke-opacity:1"
           d="m 127.05793,137.95487 c 3.78192,5.97362 0.0482,6.95188 0.0482,6.95188"
           id="path47509" />
        <path
           style="fill:none;stroke:#ff56ff;stroke-width:0.209304px;stroke-linecap:butt;stroke-linejoin:miter;stroke-opacity:1"
           d="m 127.00673,138.40795 c 2.90344,5.31148 0.037,6.18131 0.037,6.18131"
           id="path49602" />
      </g>
    </g>
    <path
       style="fill:#ff57ff;fill-opacity:1;stroke:none;stroke-width:0.297083px;stroke-linecap:butt;stroke-linejoin:miter;stroke-opacity:1"
       d="m 195.71828,133.53603 19.55022,-0.001 v -10.87246 z"
       id="path56197"
       inkscape:export-filename="C:\Users\User\Desktop\week1-portfolio\asset\illus_1.png"
       inkscape:export-xdpi="96"
       inkscape:export-ydpi="96" />
    <rect
       style="fill:#ff57ff;fill-opacity:1;stroke:none;stroke-width:0.406899;stroke-linejoin:round;stroke-miterlimit:4;stroke-dasharray:none;stroke-opacity:1"
       id="rect61381"
       width="42.333332"
       height="111.125"
       x="48.110683"
       y="77.011749"
       inkscape:export-filename="C:\Users\User\Desktop\week1-portfolio\asset\illus_1.png"
       inkscape:export-xdpi="96"
       inkscape:export-ydpi="96" />
    <rect
       style="fill:#ffcaff;fill-opacity:0.531429;stroke:none;stroke-width:0.471112;stroke-linejoin:round;stroke-miterlimit:4;stroke-dasharray:none;stroke-opacity:1"
       id="rect63543"
       width="39.6875"
       height="24.870834"
       x="49.477081"
       y="78.581245"
       inkscape:export-filename="C:\Users\User\Desktop\week1-portfolio\asset\illus_1.png"
       inkscape:export-xdpi="96"
       inkscape:export-ydpi="96" />
    <rect
       style="fill:#ffcaff;fill-opacity:0.531429;stroke:none;stroke-width:0.471112;stroke-linejoin:round;stroke-miterlimit:4;stroke-dasharray:none;stroke-opacity:1"
       id="rect63625"
       width="39.6875"
       height="24.870834"
       x="49.477081"
       y="105.56879"
       inkscape:export-filename="C:\Users\User\Desktop\week1-portfolio\asset\illus_1.png"
       inkscape:export-xdpi="96"
       inkscape:export-ydpi="96" />
    <rect
       style="fill:#ffcaff;fill-opacity:0.531429;stroke:none;stroke-width:0.471112;stroke-linejoin:round;stroke-miterlimit:4;stroke-dasharray:none;stroke-opacity:1"
       id="rect63627"
       width="39.6875"
       height="24.870834"
       x="49.477081"
       y="132.55621"
       inkscape:export-filename="C:\Users\User\Desktop\week1-portfolio\asset\illus_1.png"
       inkscape:export-xdpi="96"
       inkscape:export-ydpi="96" />
    <rect
       style="fill:#ff97ff;fill-opacity:0.53142899;stroke:none;stroke-width:0.32183;stroke-linejoin:round;stroke-miterlimit:4;stroke-dasharray:none;stroke-opacity:1"
       id="rect63629"
       width="18.520834"
       height="24.870834"
       x="50.006248"
       y="159.54335"
       inkscape:export-filename="C:\Users\User\Desktop\week1-portfolio\asset\illus_1.png"
       inkscape:export-xdpi="96"
       inkscape:export-ydpi="96" />
    <rect
       style="fill:#ff79ff;fill-opacity:1;stroke:none;stroke-width:0.32183;stroke-linejoin:round;stroke-miterlimit:4;stroke-dasharray:none;stroke-opacity:1"
       id="rect63631"
       width="18.520834"
       height="24.870834"
       x="70.114601"
       y="159.54335"
       inkscape:export-filename="C:\Users\User\Desktop\week1-portfolio\asset\illus_1.png"
       inkscape:export-xdpi="96"
       inkscape:export-ydpi="96" />
    <ellipse
       style="fill:#ff57ff;fill-opacity:1;stroke:none;stroke-width:0.412999;stroke-linejoin:round;stroke-miterlimit:4;stroke-dasharray:none;stroke-opacity:1"
       id="path65208"
       cx="65.947395"
       cy="171.15234"
       rx="0.85989583"
       ry="1.2236979"
       inkscape:export-filename="C:\Users\User\Desktop\week1-portfolio\asset\illus_1.png"
       inkscape:export-xdpi="96"
       inkscape:export-ydpi="96" />
    <ellipse
       style="fill:#ff57ff;fill-opacity:1;stroke:none;stroke-width:0.412999;stroke-linejoin:round;stroke-miterlimit:4;stroke-dasharray:none;stroke-opacity:1"
       id="ellipse66757"
       cx="72.826569"
       cy="171.15234"
       rx="0.85989583"
       ry="1.2236979"
       inkscape:export-filename="C:\Users\User\Desktop\week1-portfolio\asset\illus_1.png"
       inkscape:export-xdpi="96"
       inkscape:export-ydpi="96" />
    <rect
       style="fill:#ff57ff;fill-opacity:1;stroke:none;stroke-width:0.465285;stroke-linejoin:round;stroke-miterlimit:4;stroke-dasharray:none;stroke-opacity:1"
       id="rect66781"
       width="3.7417734"
       height="15.434815"
       x="30.264009"
       y="96.527184"
       transform="rotate(-11.707185)"
       inkscape:export-filename="C:\Users\User\Desktop\week1-portfolio\asset\illus_1.png"
       inkscape:export-xdpi="96"
       inkscape:export-ydpi="96" />
    <rect
       style="fill:#ff57ff;fill-opacity:1;stroke:none;stroke-width:0.502674;stroke-linejoin:round;stroke-miterlimit:4;stroke-dasharray:none;stroke-opacity:1"
       id="rect71188"
       width="3.769192"
       height="17.884052"
       x="26.899767"
       y="99.078346"
       transform="matrix(0.94333821,-0.33183282,0.27384875,0.96177277,0,0)"
       inkscape:export-filename="C:\Users\User\Desktop\week1-portfolio\asset\illus_1.png"
       inkscape:export-xdpi="96"
       inkscape:export-ydpi="96" />
    <rect
       style="fill:#ff57ff;fill-opacity:1;stroke:none;stroke-width:0.465285;stroke-linejoin:round;stroke-miterlimit:4;stroke-dasharray:none;stroke-opacity:1"
       id="rect71190"
       width="3.7417734"
       height="15.434815"
       x="18.321659"
       y="104.38888"
       transform="rotate(-22.595473)"
       inkscape:transform-center-x="1.683798"
       inkscape:transform-center-y="0.093544335"
       inkscape:export-filename="C:\Users\User\Desktop\week1-portfolio\asset\illus_1.png"
       inkscape:export-xdpi="96"
       inkscape:export-ydpi="96" />
    <rect
       style="fill:#ff57ff;fill-opacity:1;stroke:none;stroke-width:0.465285;stroke-linejoin:round;stroke-miterlimit:4;stroke-dasharray:none;stroke-opacity:1"
       id="rect71192"
       width="3.7417734"
       height="15.434815"
       x="11.252003"
       y="108.48082"
       transform="rotate(-28.275613)"
       inkscape:export-filename="C:\Users\User\Desktop\week1-portfolio\asset\illus_1.png"
       inkscape:export-xdpi="96"
       inkscape:export-ydpi="96" />
    <rect
       style="fill:#ff57ff;fill-opacity:1;stroke:none;stroke-width:0.465285;stroke-linejoin:round;stroke-miterlimit:4;stroke-dasharray:none;stroke-opacity:1"
       id="rect71194"
       width="3.7417734"
       height="15.434815"
       x="106.88551"
       y="59.726578"
       transform="rotate(16.437353)"
       inkscape:export-filename="C:\Users\User\Desktop\week1-portfolio\asset\illus_1.png"
       inkscape:export-xdpi="96"
       inkscape:export-ydpi="96" />
    <rect
       style="fill:#ff57ff;fill-opacity:1;stroke:none;stroke-width:0.465285;stroke-linejoin:round;stroke-miterlimit:4;stroke-dasharray:none;stroke-opacity:1"
       id="rect71196"
       width="3.7417734"
       height="15.434815"
       x="15.446239"
       y="110.73685"
       transform="rotate(-28.275613)"
       inkscape:export-filename="C:\Users\User\Desktop\week1-portfolio\asset\illus_1.png"
       inkscape:export-xdpi="96"
       inkscape:export-ydpi="96" />
    <rect
       style="fill:#ff57ff;fill-opacity:1;stroke:none;stroke-width:0.465285;stroke-linejoin:round;stroke-miterlimit:4;stroke-dasharray:none;stroke-opacity:1"
       id="rect71300"
       width="3.7417734"
       height="15.434815"
       x="107.56594"
       y="52.364124"
       transform="rotate(21.108398)"
       inkscape:export-filename="C:\Users\User\Desktop\week1-portfolio\asset\illus_1.png"
       inkscape:export-xdpi="96"
       inkscape:export-ydpi="96" />
    <rect
       style="fill:#ff57ff;fill-opacity:1;stroke:none;stroke-width:0.568145;stroke-linejoin:round;stroke-miterlimit:4;stroke-dasharray:none;stroke-opacity:1"
       id="rect71302"
       width="4.3346868"
       height="19.865532"
       x="-130.27895"
       y="50.028683"
       transform="matrix(0.00109025,-0.99999941,0.99999961,8.8325918e-4,0,0)"
       inkscape:export-filename="C:\Users\User\Desktop\week1-portfolio\asset\illus_1.png"
       inkscape:export-xdpi="96"
       inkscape:export-ydpi="96" />
    <rect
       style="fill:#ff57ff;fill-opacity:1;stroke:none;stroke-width:0.509305;stroke-linejoin:round;stroke-miterlimit:4;stroke-dasharray:none;stroke-opacity:1"
       id="rect71304"
       width="4.3346858"
       height="15.963858"
       x="-125.76929"
       y="50.856739"
       transform="matrix(8.761203e-4,-0.99999962,0.9999994,0.00109913,0,0)"
       inkscape:export-filename="C:\Users\User\Desktop\week1-portfolio\asset\illus_1.png"
       inkscape:export-xdpi="96"
       inkscape:export-ydpi="96" />
    <rect
       style="fill:#ff57ff;fill-opacity:1;stroke:none;stroke-width:0.522839;stroke-linejoin:round;stroke-miterlimit:4;stroke-dasharray:none;stroke-opacity:1"
       id="rect71306"
       width="4.3346858"
       height="16.823549"
       x="-121.33775"
       y="53.37212"
       transform="matrix(9.2330143e-4,-0.99999957,0.99999946,0.00104296,0,0)"
       inkscape:export-filename="C:\Users\User\Desktop\week1-portfolio\asset\illus_1.png"
       inkscape:export-xdpi="96"
       inkscape:export-ydpi="96" />
    <rect
       style="fill:#ff57ff;fill-opacity:1;stroke:none;stroke-width:0.522839;stroke-linejoin:round;stroke-miterlimit:4;stroke-dasharray:none;stroke-opacity:1"
       id="rect71308"
       width="4.3346858"
       height="16.823549"
       x="-116.84315"
       y="50.19297"
       transform="matrix(9.2330143e-4,-0.99999957,0.99999946,0.00104296,0,0)"
       inkscape:export-filename="C:\Users\User\Desktop\week1-portfolio\asset\illus_1.png"
       inkscape:export-xdpi="96"
       inkscape:export-ydpi="96" />
    <rect
       style="fill:#ff57ff;fill-opacity:1;stroke:none;stroke-width:0.465285;stroke-linejoin:round;stroke-miterlimit:4;stroke-dasharray:none;stroke-opacity:1"
       id="rect71310"
       width="3.7417734"
       height="15.434815"
       x="44.674301"
       y="127.02641"
       transform="rotate(-11.707185)"
       inkscape:export-filename="C:\Users\User\Desktop\week1-portfolio\asset\illus_1.png"
       inkscape:export-xdpi="96"
       inkscape:export-ydpi="96" />
    <rect
       style="fill:#ff57ff;fill-opacity:1;stroke:none;stroke-width:0.502674;stroke-linejoin:round;stroke-miterlimit:4;stroke-dasharray:none;stroke-opacity:1"
       id="rect71312"
       width="3.769192"
       height="17.884052"
       x="39.067734"
       y="131.28813"
       transform="matrix(0.94333821,-0.33183282,0.27384875,0.96177277,0,0)"
       inkscape:export-filename="C:\Users\User\Desktop\week1-portfolio\asset\illus_1.png"
       inkscape:export-xdpi="96"
       inkscape:export-ydpi="96" />
    <rect
       style="fill:#ff57ff;fill-opacity:1;stroke:none;stroke-width:0.465285;stroke-linejoin:round;stroke-miterlimit:4;stroke-dasharray:none;stroke-opacity:1"
       id="rect71314"
       width="3.7417734"
       height="15.434815"
       x="26.711386"
       y="137.06107"
       transform="rotate(-22.595473)"
       inkscape:transform-center-x="1.683798"
       inkscape:transform-center-y="0.093544335"
       inkscape:export-filename="C:\Users\User\Desktop\week1-portfolio\asset\illus_1.png"
       inkscape:export-xdpi="96"
       inkscape:export-ydpi="96" />
    <rect
       style="fill:#ff57ff;fill-opacity:1;stroke:none;stroke-width:0.568145;stroke-linejoin:round;stroke-miterlimit:4;stroke-dasharray:none;stroke-opacity:1"
       id="rect71316"
       width="4.3346868"
       height="19.865532"
       x="139.3483"
       y="-87.545265"
       transform="matrix(-0.00109025,0.99999941,-0.99999961,-8.8325918e-4,0,0)"
       inkscape:export-filename="C:\Users\User\Desktop\week1-portfolio\asset\illus_1.png"
       inkscape:export-xdpi="96"
       inkscape:export-ydpi="96" />
    <rect
       style="fill:#ff57ff;fill-opacity:1;stroke:none;stroke-width:0.509305;stroke-linejoin:round;stroke-miterlimit:4;stroke-dasharray:none;stroke-opacity:1"
       id="rect71318"
       width="4.3346858"
       height="15.963858"
       x="143.82826"
       y="-86.659485"
       transform="matrix(-8.761203e-4,0.99999962,-0.9999994,-0.00109913,0,0)"
       inkscape:export-filename="C:\Users\User\Desktop\week1-portfolio\asset\illus_1.png"
       inkscape:export-xdpi="96"
       inkscape:export-ydpi="96" />
    <rect
       style="fill:#ff57ff;fill-opacity:1;stroke:none;stroke-width:0.522839;stroke-linejoin:round;stroke-miterlimit:4;stroke-dasharray:none;stroke-opacity:1"
       id="rect71320"
       width="4.3346858"
       height="16.823549"
       x="148.2675"
       y="-84.156815"
       transform="matrix(-9.2330143e-4,0.99999957,-0.99999946,-0.00104296,0,0)"
       inkscape:export-filename="C:\Users\User\Desktop\week1-portfolio\asset\illus_1.png"
       inkscape:export-xdpi="96"
       inkscape:export-ydpi="96" />
    <rect
       style="fill:#ff57ff;fill-opacity:1;stroke:none;stroke-width:0.522839;stroke-linejoin:round;stroke-miterlimit:4;stroke-dasharray:none;stroke-opacity:1"
       id="rect71322"
       width="4.3346858"
       height="16.823549"
       x="152.7621"
       y="-87.335968"
       transform="matrix(-9.2330143e-4,0.99999957,-0.99999946,-0.00104296,0,0)"
       inkscape:export-filename="C:\Users\User\Desktop\week1-portfolio\asset\illus_1.png"
       inkscape:export-xdpi="96"
       inkscape:export-ydpi="96" />
    <rect
       style="fill:#ff57ff;fill-opacity:1;stroke:none;stroke-width:0.465285;stroke-linejoin:round;stroke-miterlimit:4;stroke-dasharray:none;stroke-opacity:1"
       id="rect71324"
       width="3.7417734"
       height="15.434815"
       x="-94.976784"
       y="125.98304"
       transform="matrix(-0.97919737,-0.20291009,-0.20291009,0.97919737,0,0)"
       inkscape:export-filename="C:\Users\User\Desktop\week1-portfolio\asset\illus_1.png"
       inkscape:export-xdpi="96"
       inkscape:export-ydpi="96" />
    <rect
       style="fill:#ff57ff;fill-opacity:1;stroke:none;stroke-width:0.502674;stroke-linejoin:round;stroke-miterlimit:4;stroke-dasharray:none;stroke-opacity:1"
       id="rect71326"
       width="3.769192"
       height="17.884052"
       x="-100.39275"
       y="111.57182"
       transform="matrix(-0.94333821,-0.33183282,-0.27384875,0.96177277,0,0)"
       inkscape:export-filename="C:\Users\User\Desktop\week1-portfolio\asset\illus_1.png"
       inkscape:export-xdpi="96"
       inkscape:export-ydpi="96" />
    <rect
       style="fill:#ff57ff;fill-opacity:1;stroke:none;stroke-width:0.465285;stroke-linejoin:round;stroke-miterlimit:4;stroke-dasharray:none;stroke-opacity:1"
       id="rect71328"
       width="3.7417734"
       height="15.434815"
       x="-110.22852"
       y="109.65712"
       transform="matrix(-0.92324058,-0.38422238,-0.38422238,0.92324058,0,0)"
       inkscape:transform-center-x="-1.683798"
       inkscape:transform-center-y="0.093547473"
       inkscape:export-filename="C:\Users\User\Desktop\week1-portfolio\asset\illus_1.png"
       inkscape:export-xdpi="96"
       inkscape:export-ydpi="96" />
  </g>
</svg>
